<svg width="111" height="63" viewBox="0 0 111 63" fill="none" xmlns="http://www.w3.org/2000/svg">
<path fill-rule="evenodd" clip-rule="evenodd" d="M111 31.1384C111 32.0559 110.694 32.9358 110.149 33.5846C109.605 34.2333 108.866 34.5978 108.096 34.5978L9.92019 34.5978L28.1993 56.3639C28.7447 57.0135 29.051 57.8945 29.051 58.8131C29.051 59.7318 28.7447 60.6128 28.1993 61.2624C27.654 61.9119 26.9144 62.2768 26.1432 62.2768C25.3719 62.2768 24.6323 61.9119 24.087 61.2624L0.853235 33.5876C0.582773 33.2663 0.368197 32.8845 0.221789 32.4643C0.0753806 32.044 9.8261e-06 31.5934 9.85868e-06 31.1384C9.89125e-06 30.6834 0.0753807 30.2328 0.221789 29.8126C0.368197 29.3923 0.582774 29.0106 0.853236 28.6892L24.087 1.01449C24.6323 0.364924 25.3719 2.30302e-06 26.1432 2.38535e-06C26.9144 2.46768e-06 27.654 0.364924 28.1993 1.01449C28.7447 1.66407 29.051 2.54507 29.051 3.46371C29.051 4.38234 28.7447 5.26335 28.1993 5.91292L9.92019 27.6791L108.096 27.6791C108.866 27.6791 109.605 28.0436 110.149 28.6923C110.694 29.3411 111 30.221 111 31.1384Z" fill="#003641"/>
</svg>
