<svg width="111" height="63" viewBox="0 0 111 63" fill="none" xmlns="http://www.w3.org/2000/svg">
<path fill-rule="evenodd" clip-rule="evenodd" d="M0 31.1384C0 30.221 0.305979 29.3411 0.850626 28.6923C1.39527 28.0436 2.13397 27.6791 2.90422 27.6791H101.08L82.8007 5.91292C82.2553 5.26335 81.949 4.38234 81.949 3.46371C81.949 2.54508 82.2553 1.66407 82.8007 1.0145C83.346 0.364925 84.0856 2.16437e-08 84.8568 0C85.6281 -2.16437e-08 86.3677 0.364925 86.913 1.0145L110.147 28.6892C110.417 29.0106 110.632 29.3923 110.778 29.8126C110.925 30.2329 111 30.6834 111 31.1384C111 31.5935 110.925 32.044 110.778 32.4643C110.632 32.8846 110.417 33.2663 110.147 33.5876L86.913 61.2624C86.3677 61.9119 85.6281 62.2769 84.8568 62.2769C84.0856 62.2769 83.346 61.9119 82.8007 61.2624C82.2553 60.6128 81.949 59.7318 81.949 58.8132C81.949 57.8945 82.2553 57.0135 82.8007 56.3639L101.08 34.5978H2.90422C2.13397 34.5978 1.39527 34.2333 0.850626 33.5846C0.305979 32.9358 0 32.0559 0 31.1384Z" fill="#003641"/>
</svg>
