<svg width="64" height="64" viewBox="0 0 64 64" fill="none" xmlns="http://www.w3.org/2000/svg">
<circle cx="32" cy="32" r="32" fill="#003641"/>
<path d="M32.1535 21.0595C26.973 21.0595 22.7944 25.0604 22.7944 30.0205C22.7944 34.9807 26.973 38.9815 32.1535 38.9815C37.3339 38.9815 41.5125 34.9807 41.5125 30.0205C41.5125 25.0604 37.3339 21.0595 32.1535 21.0595ZM32.1535 35.8464C28.8057 35.8464 26.0689 33.2337 26.0689 30.0205C26.0689 26.8073 28.7976 24.1947 32.1535 24.1947C35.5094 24.1947 38.2381 26.8073 38.2381 30.0205C38.2381 33.2337 35.5012 35.8464 32.1535 35.8464ZM44.0783 20.6929C44.0783 21.855 43.1008 22.783 41.8953 22.783C40.6817 22.783 39.7124 21.8472 39.7124 20.6929C39.7124 19.5387 40.6898 18.6028 41.8953 18.6028C43.1008 18.6028 44.0783 19.5387 44.0783 20.6929ZM50.2769 22.8142C50.1385 20.0144 49.4705 17.5343 47.3283 15.491C45.1942 13.4477 42.604 12.8081 39.6798 12.6678C36.666 12.504 27.6328 12.504 24.619 12.6678C21.7029 12.8003 19.1127 13.4399 16.9705 15.4832C14.8282 17.5265 14.1685 20.0066 14.0218 22.8064C13.8508 25.6921 13.8508 34.3411 14.0218 37.2268C14.1603 40.0266 14.8282 42.5067 16.9705 44.55C19.1127 46.5934 21.6948 47.2329 24.619 47.3733C27.6328 47.537 36.666 47.537 39.6798 47.3733C42.604 47.2407 45.1942 46.6012 47.3283 44.55C49.4624 42.5067 50.1303 40.0266 50.2769 37.2268C50.448 34.3411 50.448 25.6999 50.2769 22.8142ZM46.3834 40.323C45.7481 41.8516 44.5181 43.0292 42.9135 43.6453C40.5106 44.5578 34.8089 44.3473 32.1535 44.3473C29.4981 44.3473 23.7882 44.55 21.3934 43.6453C19.7969 43.037 18.567 41.8594 17.9235 40.323C16.9705 38.0223 17.1904 32.563 17.1904 30.0205C17.1904 27.478 16.9786 22.0109 17.9235 19.718C18.5588 18.1894 19.7888 17.0118 21.3934 16.3957C23.7963 15.4832 29.4981 15.6938 32.1535 15.6938C34.8089 15.6938 40.5188 15.491 42.9135 16.3957C44.51 17.004 45.7399 18.1816 46.3834 19.718C47.3364 22.0187 47.1165 27.478 47.1165 30.0205C47.1165 32.563 47.3364 38.0301 46.3834 40.323Z" fill="white"/>
</svg>
