<svg width="64" height="64" viewBox="0 0 64 64" fill="none" xmlns="http://www.w3.org/2000/svg">
<circle cx="32" cy="32" r="32" fill="#003641"/>
<path d="M31.9864 50.874C30.9935 50.874 29.9794 50.874 28.9865 50.874C28.8386 50.8341 28.6907 50.7741 28.5428 50.7542C25.0992 50.4345 22.1627 49.076 19.6275 46.8585C16.9233 44.5012 15.3177 41.6244 15.3177 38.1283C15.3177 34.3526 16.7332 32.8143 19.8388 31.9952C19.9655 31.9553 20.0712 31.8953 20.2824 31.7954C18.8247 29.518 18.8458 27.4403 21.1486 25.6224C22.7542 24.3638 24.3598 24.3238 26.2401 25.4026C25.8387 24.164 25.4584 23.0852 25.1204 22.0064C24.064 18.6702 22.9866 15.3539 21.9725 11.9977C21.6345 10.839 21.5711 9.64032 22.0148 8.46165C22.5007 7.12315 23.5148 6.364 24.9936 6.10429C26.3034 5.88454 27.1062 6.58375 27.7823 7.44279C28.3738 8.22192 29.0076 9.02102 29.409 9.90003C30.74 12.7968 31.9864 15.7135 33.2117 18.6502C33.7188 19.8289 34.099 21.0475 34.5849 22.406C34.7962 21.8266 34.9652 21.4071 35.1342 21.0076C36.3384 18.0908 37.4792 15.1541 38.8102 12.2973C39.5074 10.819 40.5003 9.44055 41.5144 8.12203C43.2256 5.90452 46.2889 7.14313 46.9861 9.06097C47.4509 10.3595 47.4086 11.6381 47.0283 12.8767C46.0354 16.0731 44.9368 19.2296 43.8805 22.406C43.5636 23.325 43.2045 24.2239 42.8876 25.103C42.951 25.1629 42.9721 25.1829 42.9932 25.2028C43.12 25.2428 43.2467 25.2828 43.3735 25.3027C45.8241 25.8022 47.2396 27.2805 47.7255 29.5779C47.8523 30.2172 47.9579 30.8365 48.0847 31.4758C48.0847 32.6745 48.0847 33.8731 48.0847 35.0518C47.979 35.6911 47.8945 36.3304 47.7678 36.9497C46.3312 43.782 42.2538 48.3968 35.092 50.3346C34.0568 50.6143 33.0005 50.6942 31.9864 50.874ZM19.6486 37.6489C20.05 38.1883 20.3669 38.6478 20.7261 39.0473C21.4233 39.8464 22.0993 40.6855 22.9021 41.3847C23.3457 41.7643 24.0007 42.004 24.5922 42.1039C25.7119 42.2837 26.5569 41.2848 26.0922 40.3259C24.9725 38.0284 23.2824 36.1306 21.3176 34.4724C20.5782 33.8332 19.9233 33.8332 19.1839 34.4724C18.5501 35.0318 17.9163 35.731 17.6839 36.4902C17.4093 37.3492 17.3881 38.388 17.5994 39.2671C18.5289 43.1627 21.1697 45.8197 24.888 47.4579C32.6624 50.894 41.5144 47.358 44.5777 39.6666C45.7819 36.65 45.972 33.5335 45.5918 30.3371C45.4016 28.8188 44.5777 27.8599 43.1622 27.3404C42.0848 26.9409 40.9862 26.6213 39.8665 26.3416C37.0356 25.6424 34.1413 25.3227 31.2047 25.3627C29.7259 25.3826 29.1555 26.0019 29.2822 27.3804C29.409 28.8388 30.4019 29.6179 31.754 30.0574C33.9512 30.7566 36.2117 30.9364 38.5144 31.0163C39.3384 31.0363 40.1412 31.0363 40.9651 31.0363C41.5778 31.0363 41.8313 31.3959 42.0003 31.8953C42.1693 32.3948 41.789 32.5746 41.451 32.7344C40.8595 33.0141 40.2257 33.2139 39.6764 33.5335C38.4299 34.2327 37.0145 34.832 36.0004 35.771C33.4441 38.1084 32.1132 40.8852 33.423 44.3214C33.592 44.7409 33.6765 45.1804 33.761 45.6199C33.8033 45.8197 33.761 46.0395 33.761 46.459C30.7822 45.3003 30.8878 42.923 30.7188 40.7454C29.9794 40.8053 29.2822 40.8453 28.5851 40.9052C29.0921 43.6421 27.1907 45.4601 24.4443 44.7409C22.0782 44.1416 20.4514 42.6233 19.4374 40.5256C19.0149 39.6067 19.205 38.6877 19.6486 37.6489ZM32.4934 23.5447C32.4301 23.325 32.4089 23.1651 32.3456 23.0453C30.8667 19.1097 29.409 15.1941 27.8879 11.2785C27.5499 10.4194 27.064 9.62035 26.5781 8.84122C26.2401 8.30183 25.7119 7.94223 24.9936 8.16198C24.2964 8.36176 23.8739 8.8612 23.8105 9.50048C23.7471 10.0399 23.7894 10.5992 23.9162 11.1187C24.9513 15.4138 26.6626 19.5092 28.3104 23.6046C28.3316 23.6446 28.3949 23.6646 28.4372 23.7045C29.7048 22.9454 31.0568 23.5247 32.4934 23.5447ZM36.4652 23.8843C37.7116 24.1041 38.8313 24.2639 39.9088 24.5036C40.3947 24.6035 40.6059 24.5236 40.775 24.0641C42.1059 20.2484 43.4791 16.4327 44.8101 12.617C45.0002 12.0776 45.127 11.4982 45.1692 10.9389C45.2537 10.0998 44.7889 9.38061 44.1552 9.16086C43.5002 8.94111 42.8453 9.16086 42.296 9.93999C41.789 10.6792 41.282 11.4583 40.944 12.2973C39.444 16.1131 37.9863 19.9288 36.4652 23.8843ZM30.909 36.8498C30.8667 36.7099 30.8245 36.4302 30.74 36.1905C29.916 33.7133 28.733 31.3959 27.1274 29.2783C26.6626 28.659 26.071 28.1196 25.4373 27.6201C24.8457 27.1607 24.0852 26.9409 23.388 27.3804C21.7613 28.3993 21.4866 29.2783 22.0148 30.6168C23.0077 33.1339 24.6978 35.2116 26.5569 37.1894C27.2752 37.9485 28.2048 38.2282 29.1977 38.408C30.085 38.5878 30.909 37.8686 30.909 36.8498ZM31.2259 32.215C31.7118 33.4136 32.1765 34.6123 32.6413 35.771C33.7188 34.852 34.7962 33.9131 35.8948 32.9741C34.3526 32.7144 32.8103 32.4747 31.2259 32.215Z" fill="white"/>
</svg>
