<svg width="64" height="64" viewBox="0 0 64 64" fill="none" xmlns="http://www.w3.org/2000/svg">
<circle cx="32" cy="32" r="32" fill="#003641"/>
<path d="M21.9182 45.4961H14.3472V22.1615H21.9165L21.9182 45.4961ZM18.1278 18.9785C15.7074 18.9785 13.7441 17.0593 13.7441 14.7422C13.7441 13.629 14.2061 12.5614 15.0283 11.7743C15.8506 10.9871 16.9658 10.5449 18.1286 10.5449C19.2914 10.5449 20.4067 10.9871 21.2289 11.7743C22.0511 12.5614 22.5131 13.629 22.5131 14.7422C22.5131 17.0593 20.549 18.9785 18.1294 18.9785H18.1278ZM50.2461 45.4961H42.6931V34.137C42.6931 31.4298 42.636 27.9581 38.7576 27.9581C34.8222 27.9581 34.2191 30.8993 34.2191 33.9419V45.4961H26.658V22.1615H33.9176V25.3446H34.0235C35.0341 23.5112 37.5026 21.5764 41.1854 21.5764C48.846 21.5764 50.2559 26.4056 50.2559 32.6781V45.4961H50.2461Z" fill="white"/>
</svg>
