<svg width="64" height="64" viewBox="0 0 64 64" fill="none" xmlns="http://www.w3.org/2000/svg">
<circle cx="32" cy="32" r="32" fill="#003641"/>
<path d="M30.7583 29.9663C29.8336 25.6335 25.059 21.5139 18.9823 22.0466C13.0565 22.5793 8.67824 27.356 8.92358 32.8784C9.16891 38.5784 14.1133 42.9644 20.0768 42.9111C25.2477 42.8579 30.6262 38.7915 30.6828 34.956C29.5128 34.956 28.3427 35.0093 27.1727 34.9382C26.2668 34.885 25.5685 35.0093 25.21 35.8971C25.1345 36.1102 24.8892 36.27 24.7193 36.4653C22.7 38.6317 19.4352 39.0756 16.6988 37.5485C14.2266 36.1635 13.0188 33.1093 14.019 30.5522C14.9248 28.2261 16.7176 26.8233 19.3408 26.5569C22.0584 26.2906 24.1343 27.356 25.5685 29.5401C25.7006 29.7354 25.9649 29.9485 26.1724 29.9485C27.6822 29.984 29.1919 29.9663 30.7583 29.9663Z" fill="white"/>
<path d="M54.0727 26.8989C50.1017 21.0477 44.6439 20.3026 38.3393 23.2646C38.3393 21.3021 38.3393 19.3577 38.3393 17.4134C38.3393 15.469 38.3393 13.5246 38.3393 11.5439C36.8149 11.5439 35.3657 11.5439 33.879 11.5439C33.879 21.7745 33.879 31.9506 33.879 42.1085C35.4034 42.1085 36.8713 42.1085 38.3393 42.1085C38.3769 41.7814 38.3957 41.4906 38.4146 41.1999C43.8911 43.9256 48.916 43.544 53.0564 38.983C56.1805 35.5849 56.6134 30.6422 54.0727 26.8989ZM44.8133 38.5287C41.294 38.5468 38.4898 35.8575 38.4522 32.423C38.4146 29.2067 41.2752 26.3901 44.5875 26.3537C48.1632 26.3174 51.0615 28.9704 51.0991 32.3322C51.1368 35.7303 48.3138 38.5105 44.8133 38.5287Z" fill="white"/>
</svg>
